<?xml version="1.0" encoding="UTF-8"?>
<svg width="93px" height="64px" viewBox="0 0 93 64" version="1.1" xmlns="http://www.w3.org/2000/svg" xmlns:xlink="http://www.w3.org/1999/xlink">
    <!-- Generator: Sketch 42 (36781) - http://www.bohemiancoding.com/sketch -->
    <title>logo-oneline</title>
    <desc>Created with Sketch.</desc>
    <defs></defs>
    <g id="Page-1" stroke="none" stroke-width="1" fill="none" fill-rule="evenodd">
        <g id="logo-oneline" fill-rule="nonzero" fill="#000000">
            <g id="Layer_1_1_">
                <path d="M55.012,34.035 C58.109,30.942 59.813,27.385 59.813,24.014 C59.813,21.416 58.83,19.071 56.971,17.209 C56.085,16.323 55.034,15.654 53.858,15.214 L53.262,18.129 C53.85,18.451 54.388,18.851 54.858,19.318 C56.487,20.947 57.274,23.183 57.08,25.619 C56.886,28.037 55.723,30.431 53.801,32.35 C52.632,33.515 51.247,34.441 49.787,35.07 L49.228,37.796 C51.274,37.036 53.274,35.772 55.012,34.035 Z M55.357,25.482 C55.511,23.56 54.899,21.805 53.635,20.543 C53.406,20.314 53.157,20.108 52.893,19.926 L50.226,32.927 C51.073,32.445 51.869,31.838 52.576,31.129 C54.209,29.498 55.196,27.492 55.357,25.482 Z M5.255,48.509 C4.71,47.149 4.253,45.755 3.885,44.331 L2.244,52.341 L7.073,52.341 C6.389,51.107 5.782,49.828 5.255,48.509 Z M47.561,10.181 C45.674,10.598 43.815,11.311 42.053,12.294 L47.13,12.294 L47.561,10.181 Z M10.546,33.938 C10.546,28.82 11.71,23.628 14.003,18.522 C16.37,13.247 19.833,8.313 24.292,3.856 C25.606,2.541 26.975,1.315 28.391,0.171 L20.968,0.171 C20.67,0.458 20.375,0.747 20.079,1.04 C15.96,5.156 12.588,9.63 10.026,14.376 L4.786,39.938 C5.157,42.69 5.848,45.339 6.859,47.866 C7.48,49.417 8.217,50.909 9.067,52.341 L16.796,52.341 C15.07,50.173 13.683,47.78 12.653,45.198 C11.255,41.693 10.546,37.904 10.546,33.938 Z M27.239,12.296 L31.695,12.296 C31.93,12.053 32.168,11.811 32.411,11.564 C37.14,6.841 43.017,3.793 49.048,2.918 L49.61,0.178 L44.75,0.178 C39.529,1.824 34.392,4.876 29.998,9.269 C29.015,10.246 28.096,11.257 27.239,12.296 Z M15.582,19.229 C13.389,24.114 12.275,29.064 12.275,33.935 C12.275,37.681 12.943,41.254 14.26,44.561 C15.4,47.415 17.009,50.03 19.055,52.337 L28.169,52.337 C26.891,51.524 25.711,50.573 24.64,49.503 C19.489,44.358 17.045,37.346 17.763,29.755 C18.119,26.012 19.223,22.263 21.046,18.609 C22.93,14.838 25.53,11.284 28.775,8.04 C31.868,4.95 35.371,2.436 39.185,0.575 C39.47,0.434 39.753,0.301 40.039,0.17 L31.228,0.17 C29.229,1.634 27.319,3.272 25.515,5.072 C21.204,9.38 17.86,14.143 15.582,19.229 Z M12.94,0.174 L11.071,9.285 C13.185,6.097 15.671,3.056 18.508,0.174 L12.94,0.174 L12.94,0.174 Z M25.106,31.312 C25.106,31.559 25.111,31.805 25.12,32.047 L29.033,32.047 C28.97,31.454 28.936,30.857 28.936,30.242 C28.936,26.686 30.017,23.054 31.998,19.741 L28.299,19.741 C26.211,23.468 25.106,27.413 25.106,31.312 Z M66.189,7.999 C68.518,10.329 70.164,13.023 71.077,16.017 C71.103,16.103 71.129,16.19 71.154,16.276 L71.969,12.297 L74.274,12.297 C73.183,9.531 71.529,7.029 69.347,4.85 C67.234,2.739 64.734,1.186 61.992,0.173 L56.942,0.173 L56.365,2.986 C57.184,3.132 57.986,3.325 58.772,3.567 C61.638,4.455 64.134,5.947 66.189,7.999 Z M41.459,39.976 L41.464,39.961 L34.748,39.961 C36.489,41.568 38.537,42.656 40.791,43.181 L41.459,39.976 Z M59.177,38.357 C55.837,41.693 51.833,43.945 47.786,44.834 L47.079,48.285 C52.311,47.256 57.508,44.467 61.572,40.408 C66.181,35.805 69.161,30.217 69.969,24.675 C70.116,23.672 70.186,22.689 70.187,21.718 C70.187,21.49 70.183,21.261 70.175,21.036 C70.012,16.53 68.246,12.498 64.966,9.224 C62.518,6.777 59.419,5.282 56.017,4.684 L55.234,8.503 C57.759,9.128 60.007,10.37 61.825,12.186 C68.537,18.894 67.398,30.146 59.177,38.357 Z M42.616,19.745 L39.428,19.745 C36.829,22.589 35.352,26.035 35.352,29.307 C35.352,30.271 35.475,31.186 35.713,32.049 L38.79,32.049 C38.264,30.987 37.986,29.789 37.986,28.532 C37.986,25.776 39.252,22.994 41.554,20.693 C41.894,20.355 42.248,20.039 42.616,19.745 Z M91.151,8.676 L92.892,0.174 L87.912,0.174 C88.558,1.374 89.136,2.614 89.643,3.901 C90.257,5.447 90.762,7.041 91.151,8.676 Z M76.122,12.296 L82.005,12.296 C80.888,7.749 78.68,3.622 75.47,0.174 L66.043,0.174 C67.703,1.12 69.216,2.276 70.57,3.625 C73.086,6.142 74.952,9.052 76.122,12.296 Z M30.665,30.246 C30.665,30.861 30.703,31.463 30.771,32.05 L33.935,32.05 C33.73,31.169 33.623,30.25 33.623,29.309 C33.623,27.36 34.061,25.39 34.919,23.455 C35.495,22.155 36.248,20.918 37.162,19.747 L34.039,19.747 C31.863,23.019 30.665,26.684 30.665,30.246 Z M19.483,29.923 C18.816,36.987 21.082,43.509 25.863,48.289 C27.565,49.988 29.568,51.351 31.828,52.342 L38.882,52.342 L39.329,50.203 C35.266,49.578 31.688,47.797 28.848,44.961 C27.387,43.504 26.197,41.815 25.305,39.963 L21.199,39.963 L22.783,32.05 L23.392,32.05 C23.384,31.807 23.376,31.563 23.376,31.314 C23.376,27.414 24.399,23.48 26.336,19.748 L25.323,19.748 L26.703,12.966 C22.563,18.213 20.036,24.1 19.483,29.923 Z M40.438,44.873 C37.681,44.246 35.194,42.869 33.126,40.803 C32.854,40.532 32.599,40.252 32.354,39.963 L27.25,39.963 C28.003,41.353 28.95,42.617 30.071,43.74 C32.664,46.33 35.946,47.949 39.681,48.506 L40.438,44.873 Z M42.778,21.916 C40.803,23.894 39.714,26.239 39.714,28.535 C39.714,29.859 40.087,31.056 40.797,32.05 L42.649,32.05 L45.046,20.171 C44.239,20.635 43.471,21.222 42.778,21.916 Z M47.937,8.344 L48.678,4.729 C43.625,5.605 38.462,8.165 34.134,12.296 L38.849,12.296 C41.644,10.278 44.756,8.921 47.937,8.344 Z M61.543,24.013 C61.543,27.84 59.659,31.835 56.236,35.253 C54.084,37.403 51.518,38.952 48.825,39.758 L48.168,42.961 C51.635,42.043 55.055,40.029 57.953,37.132 C65.478,29.617 66.617,19.418 60.6,13.405 C59.033,11.836 57.081,10.751 54.886,10.198 L54.204,13.514 C55.72,14.036 57.079,14.872 58.191,15.985 C60.385,18.177 61.543,20.951 61.543,24.013 Z M82.776,21.719 L77.526,21.719 C77.497,22.475 77.435,23.23 77.342,23.99 C76.926,27.365 75.908,30.755 74.345,34.024 L79.679,34.024 C81.261,30.389 82.278,26.645 82.671,22.906 C82.717,22.508 82.75,22.116 82.776,21.719 Z M85.928,0.174 L77.776,0.174 C80.723,3.699 82.751,7.819 83.786,12.296 L90.09,12.296 C89.702,9.607 89.014,7.006 88.037,4.534 C87.437,3.02 86.733,1.565 85.928,0.174 Z M84.394,23.087 C84.006,26.767 83.043,30.445 81.557,34.025 L85.544,34.025 L88.026,21.714 L84.51,21.714 C84.479,22.175 84.44,22.631 84.394,23.087 Z M63.754,52.341 L64.938,46.581 C62.382,48.893 59.502,50.831 56.447,52.341 L63.754,52.341 Z M46.705,50.103 L46.247,52.338 L52.056,52.338 C56.828,50.617 61.332,47.804 65.011,44.123 C65.195,43.941 65.376,43.754 65.554,43.568 L66.996,36.555 C65.791,38.33 64.387,40.034 62.796,41.621 C58.311,46.111 52.512,49.125 46.705,50.103 Z M75.797,21.719 L71.914,21.719 C71.914,22.776 71.84,23.842 71.681,24.926 C71.232,28.001 70.16,31.085 68.547,34.028 L72.423,34.028 C74.111,30.697 75.204,27.234 75.624,23.785 C75.71,23.089 75.766,22.401 75.797,21.719 Z M56.987,57.833 C56.492,57.833 55.814,57.983 55.395,58.407 C55.152,58.652 55.031,58.952 55.035,59.299 C55.044,60.227 55.867,60.546 56.468,60.781 L56.624,60.84 C57.246,61.072 57.834,61.291 57.841,61.879 C57.842,62.082 57.769,62.26 57.623,62.407 C57.35,62.682 56.898,62.78 56.594,62.78 C56.257,62.78 55.79,62.715 55.482,62.404 C55.274,62.194 55.169,61.899 55.171,61.529 L55.171,61.479 L54.435,61.479 L54.434,61.527 C54.415,62.055 54.567,62.491 54.886,62.822 C55.246,63.195 55.816,63.409 56.449,63.409 C57.169,63.409 57.795,63.194 58.167,62.82 C58.439,62.546 58.576,62.194 58.573,61.774 C58.562,60.861 57.702,60.535 57.011,60.272 C56.953,60.25 56.897,60.228 56.842,60.207 C56.258,59.977 55.775,59.744 55.769,59.298 C55.767,59.091 55.832,58.918 55.963,58.785 C56.238,58.508 56.726,58.466 56.993,58.466 C57.406,58.466 57.731,58.58 57.934,58.796 C58.107,58.984 58.185,59.234 58.166,59.548 L58.164,59.6 L58.902,59.6 L58.902,59.55 C58.907,59.031 58.763,58.621 58.475,58.33 C58.147,58 57.646,57.833 56.987,57.833 Z M46.119,56.682 L50.025,56.682 L50.154,56 L45.471,56 L43.997,63.196 L43.984,63.256 L44.768,63.256 L45.469,59.851 L48.949,59.851 L49.072,59.164 L45.612,59.164 L46.119,56.682 Z M51.156,57.987 L50.42,57.987 L49.345,63.197 L49.332,63.257 L50.069,63.257 L51.143,58.047 L51.156,57.987 Z M40.853,57.836 C40.185,57.836 39.523,58.196 39.086,58.788 L39.228,57.986 L38.546,57.986 L37.474,63.198 L37.461,63.258 L38.198,63.258 L38.75,60.567 C39.006,59.313 39.794,58.467 40.709,58.467 C41.019,58.467 41.742,58.553 41.75,59.352 C41.75,59.492 41.73,59.654 41.687,59.864 L40.994,63.2 L40.981,63.26 L41.717,63.26 L42.406,59.906 C42.454,59.675 42.48,59.459 42.478,59.28 C42.471,58.348 41.893,57.836 40.853,57.836 Z M54.647,58.659 L54.802,57.932 L54.747,57.923 C54.633,57.911 54.51,57.911 54.402,57.911 L54.386,57.911 C53.635,57.911 53.069,58.25 52.621,58.974 L52.83,57.985 L52.154,57.985 L51.078,63.193 L51.065,63.253 L51.801,63.253 L52.369,60.513 C52.482,59.957 52.892,58.669 54.244,58.649 C54.305,58.649 54.364,58.652 54.423,58.654 C54.484,58.657 54.545,58.659 54.606,58.659 L54.647,58.659 L54.647,58.659 Z M61.368,56.424 L60.633,56.424 L60.318,57.986 L59.383,57.986 L59.246,58.615 L60.182,58.615 L59.515,61.987 C59.472,62.194 59.446,62.396 59.446,62.526 C59.45,63.05 59.791,63.32 60.458,63.32 C60.644,63.32 60.836,63.3 61.023,63.288 L61.144,63.278 L61.269,62.615 L61.198,62.628 C60.959,62.668 60.726,62.69 60.465,62.69 C60.211,62.69 60.183,62.472 60.183,62.378 C60.181,62.23 60.193,62.147 60.244,61.898 L60.915,58.622 L61.97,58.622 L62.083,57.993 L61.049,57.993 L61.368,56.424 Z M35.119,57.885 C33.271,57.885 32.242,59.508 32.258,61.203 C32.273,62.5 33.017,63.357 34.345,63.357 C36.263,63.357 37.204,61.654 37.186,59.91 C37.175,58.64 36.324,57.885 35.119,57.885 Z M34.464,62.828 C33.412,62.828 32.903,62.144 32.893,61.144 C32.881,59.931 33.632,58.415 35.016,58.415 C36.029,58.415 36.547,59.077 36.557,60.04 C36.566,61.246 35.846,62.828 34.464,62.828 Z M51.504,56.052 L50.872,56.052 L50.66,57.067 L51.294,57.067 L51.504,56.052 Z M2.126,56.682 L6.242,56.682 L6.386,56 L1.478,56 L0.012,63.194 L0,63.256 L5,63.256 L5.145,62.58 L0.929,62.58 L1.486,59.851 L5.32,59.851 L5.465,59.164 L1.62,59.164 L2.126,56.682 Z M19.674,57.836 C18.975,57.836 18.342,58.106 17.842,58.607 C17.207,59.248 16.833,60.226 16.842,61.225 C16.856,62.572 17.648,63.409 18.91,63.409 C20.148,63.409 20.972,62.784 21.358,61.55 L21.378,61.488 L20.644,61.488 L20.632,61.521 C20.355,62.31 19.739,62.781 18.985,62.781 C18.113,62.781 17.587,62.2 17.577,61.226 C17.569,60.356 17.86,59.537 18.357,59.035 C18.728,58.661 19.192,58.472 19.737,58.472 C20.121,58.472 20.453,58.601 20.671,58.829 C20.868,59.038 20.963,59.321 20.945,59.648 L20.942,59.7 L21.676,59.7 L21.677,59.651 C21.689,59.128 21.539,58.702 21.232,58.388 C20.88,58.027 20.341,57.836 19.674,57.836 Z M15.279,60.677 C15.023,61.936 14.237,62.781 13.323,62.781 C13.011,62.781 12.284,62.695 12.277,61.9 C12.274,61.7 12.316,61.496 12.341,61.386 L13.031,58.048 L13.044,57.988 L12.311,57.988 L11.621,61.348 C11.569,61.619 11.545,61.817 11.545,61.963 C11.554,62.896 12.132,63.404 13.173,63.404 C13.84,63.404 14.504,63.041 14.946,62.444 L14.797,63.252 L15.481,63.252 L16.554,58.044 L16.567,57.984 L15.834,57.984 L15.279,60.677 Z M11,56.052 L10.408,59.009 L10.387,59.009 C10.15,58.197 9.506,57.886 8.692,57.886 C6.952,57.886 5.878,59.657 5.893,61.245 C5.905,62.509 6.553,63.358 7.88,63.358 C8.793,63.358 9.32,62.958 9.755,62.272 L9.778,62.272 L9.556,63.206 L10.167,63.206 L11.634,56.052 L11,56.052 L11,56.052 Z M7.937,62.828 C6.983,62.828 6.532,62.164 6.524,61.285 C6.512,60.019 7.248,58.418 8.705,58.418 C9.627,58.418 10.157,59.01 10.165,59.912 C10.18,61.189 9.39,62.828 7.937,62.828 Z M29.098,58.618 L30.157,58.618 L30.266,57.987 L29.234,57.987 L29.551,56.425 L28.815,56.425 L28.502,57.987 L27.569,57.987 L27.427,58.618 L28.365,58.618 L27.696,61.988 C27.656,62.189 27.632,62.39 27.632,62.527 C27.636,63.061 27.966,63.321 28.641,63.321 C28.872,63.321 29.109,63.299 29.288,63.278 L29.325,63.274 L29.453,62.617 L29.383,62.628 C29.12,62.669 28.886,62.69 28.647,62.69 C28.387,62.69 28.364,62.453 28.363,62.378 C28.362,62.227 28.376,62.148 28.43,61.899 L29.098,58.618 Z M26.694,59.039 C26.685,58.129 25.589,57.89 24.888,57.89 C23.772,57.89 22.875,58.411 22.714,59.58 L23.346,59.58 C23.468,58.717 24.158,58.418 24.962,58.418 C25.447,58.418 26.056,58.549 26.061,59.164 C26.068,59.84 25.859,60.074 25.454,60.174 C25.051,60.275 24.468,60.224 23.804,60.324 C22.885,60.484 22.018,60.832 22.027,61.924 C22.036,62.941 22.754,63.362 23.696,63.362 C24.421,63.362 25.127,63.009 25.488,62.413 L25.502,62.434 C25.495,62.522 25.488,62.622 25.491,62.714 C25.499,63.055 25.694,63.276 26.043,63.276 C26.212,63.276 26.424,63.255 26.566,63.225 L26.65,62.718 C26.562,62.733 26.491,62.739 26.4,62.739 C26.247,62.739 26.069,62.712 26.066,62.528 C26.062,62.216 26.17,61.948 26.389,60.786 C26.488,60.324 26.7,59.542 26.694,59.039 Z M25.664,61.312 C25.474,62.213 24.832,62.828 23.822,62.828 C23.22,62.828 22.669,62.558 22.661,61.898 C22.651,60.814 23.924,60.777 24.695,60.71 C25.013,60.688 25.633,60.671 25.835,60.419 L25.856,60.442 L25.664,61.312 Z M30.189,63.197 L30.176,63.257 L30.906,63.257 L31.981,58.047 L31.994,57.987 L31.258,57.987 L30.189,63.197 Z M31.711,56.052 L31.502,57.067 L32.133,57.067 L32.345,56.052 L31.711,56.052 Z" id="Shape"></path>
            </g>
        </g>
    </g>
</svg>